<?xml version="1.0" encoding="UTF-8" standalone="no"?>
<svg
   xmlns:dc="http://purl.org/dc/elements/1.1/"
   xmlns:cc="http://creativecommons.org/ns#"
   xmlns:rdf="http://www.w3.org/1999/02/22-rdf-syntax-ns#"
   xmlns:svg="http://www.w3.org/2000/svg"
   xmlns="http://www.w3.org/2000/svg"
   xmlns:sodipodi="http://sodipodi.sourceforge.net/DTD/sodipodi-0.dtd"
   xmlns:inkscape="http://www.inkscape.org/namespaces/inkscape"
   width="4.2333331mm"
   height="4.2333331mm"
   viewBox="0 0 4.2333331 4.2333331"
   version="1.1"
   id="svg8"
   inkscape:version="1.0 (4035a4fb49, 2020-05-01)"
   sodipodi:docname="favicon.svg">
  <defs
     id="defs2" />
  <sodipodi:namedview
     id="base"
     pagecolor="#ffffff"
     bordercolor="#666666"
     borderopacity="1.0"
     inkscape:pageopacity="0.0"
     inkscape:pageshadow="2"
     inkscape:zoom="44.8"
     inkscape:cx="6.7985353"
     inkscape:cy="7.5192077"
     inkscape:document-units="mm"
     inkscape:current-layer="layer1"
     inkscape:document-rotation="0"
     showgrid="false"
     showborder="false"
     showguides="false"
     inkscape:window-width="1920"
     inkscape:window-height="1121"
     inkscape:window-x="-9"
     inkscape:window-y="-9"
     inkscape:window-maximized="1" />
  <metadata
     id="metadata5">
    <rdf:RDF>
      <cc:Work
         rdf:about="">
        <dc:format>image/svg+xml</dc:format>
        <dc:type
           rdf:resource="http://purl.org/dc/dcmitype/StillImage" />
        <dc:title />
      </cc:Work>
    </rdf:RDF>
  </metadata>
  <g
     transform="translate(0,-0.05905878)"
     inkscape:label="Layer 1"
     inkscape:groupmode="layer"
     id="layer1">
    <g
       id="g850">
      <rect
         ry="0.26726952"
         y="0.059058782"
         x="0"
         height="4.2333331"
         width="4.2333331"
         id="rect833"
         style="fill:#006680;stroke-width:0.333542" />
      <path
         id="path838"
         style="fill:#ffffff;stroke-width:9.1697"
         d="m 1.0109521,2.2554353 c 0.055004,-0.055004 0.1209955,-0.00575 0.1985686,1e-7 0.4170959,0.03092 0.7579488,0.1889114 0.8168396,0.8168395 0.00726,0.077446 0.055004,0.1435648 0,0.1985686 -0.055004,0.055004 -0.1823633,0.076079 -0.1985686,1e-7 C 1.7389456,2.8537476 1.5535245,2.512895 1.0109521,2.454004 c -0.0773327,-0.00839 -0.0550039,-0.1435649 0,-0.1985687 z"
         sodipodi:nodetypes="sssssss" />
      <path
         id="path842"
         style="fill:#ffffff;stroke-width:9.1697"
         d="m 1.752126,1.5142614 c 0.055004,-0.055004 0.1209955,-0.00575 0.1985687,0 0.4170959,0.03092 0.7579487,0.1889114 0.8168396,0.8168396 0.00726,0.077446 0.055004,0.1435648 -10e-8,0.1985686 -0.055004,0.055004 -0.1823633,0.076079 -0.1985686,10e-8 C 2.4801196,2.1125737 2.2946984,1.771721 1.752126,1.7128301 c -0.077333,-0.00839 -0.055004,-0.1435648 0,-0.1985687 z"
         sodipodi:nodetypes="sssssss" />
      <path
         sodipodi:nodetypes="cssssc"
         id="path956"
         d="m 1.407738,2.8518227 c 0,0 -0.51672876,-0.3162624 -0.3777217,-0.4994786 C 1.3334946,1.9523483 1.9042142,3.2278067 2.2638685,2.8774599 2.6312483,2.519593 1.4079602,1.9042636 1.7940533,1.5666701 2.2172055,1.1966733 2.7032315,2.5882147 3.1828895,2.295154 3.5377651,2.0783334 3.1420848,1.1174758 3.1420848,1.1174758"
         style="fill:none;stroke:#ffffff;stroke-width:0.0125498;stroke-linecap:butt;stroke-linejoin:miter;stroke-miterlimit:4;stroke-dasharray:none;stroke-opacity:1" />
      <path
         sodipodi:nodetypes="sssssss"
         d="m 1.933247,1.0218473 c 0.071866,-0.0718663 0.158089,-0.00751 0.2594439,0 0.5449646,0.040399 0.9903126,0.2468258 1.0672576,1.0672576 0.00949,0.1011887 0.071867,0.1875768 -2e-7,0.2594437 -0.071866,0.071866 -0.2382703,0.099402 -0.2594436,0 C 2.884421,1.8035838 2.6421557,1.358236 1.9332471,1.2812911 1.8322066,1.2703237 1.8613812,1.0937131 1.933247,1.0218473 Z"
         style="fill:#ffffff;stroke-width:11.9808"
         id="path844" />
      <path
         sodipodi:nodetypes="sssssss"
         d="m 1.3741273,1.8922601 c 0.055004,-0.055004 0.1209955,-0.00575 0.1985687,0 0.4170959,0.03092 0.7579487,0.1889114 0.8168396,0.8168396 0.00726,0.077446 0.055004,0.1435648 -10e-8,0.1985686 -0.055004,0.055004 -0.1823633,0.076079 -0.1985686,10e-8 -0.088846,-0.417096 -0.2742672,-0.7579487 -0.8168396,-0.8168396 -0.077333,-0.00839 -0.055004,-0.1435648 0,-0.1985687 z"
         style="fill:#ffffff;stroke-width:9.1697"
         id="path840" />
      <path
         d="m 0.13302814,2.4516465 c -0.09033427,0.090334 -0.12746447,0.3122632 -4.5852e-4,0.326049 0.28441017,0.03087 0.5040052,0.1127633 0.6828226,0.2269961 l 0.23204038,-1e-7 c 0.082122,0 0.1481207,0.065998 0.1481207,0.1481207 V 3.3839355 C 1.3308496,3.5955966 1.4162961,3.8468675 1.4743689,4.1194947 1.500984,4.2444426 1.7100834,4.2093703 1.8004177,4.119036 1.890752,4.0287017 1.8128056,3.9201811 1.8008764,3.7929872 1.7041577,2.7617182 1.1440886,2.5019686 0.45907713,2.451188 0.33167537,2.4417435 0.2233624,2.3613122 0.13302814,2.4516465 Z"
         style="fill:#ffffff;stroke-width:15.0597"
         id="rect835" />
      <path
         id="path846"
         style="fill:#ffffff;stroke-width:11.9808"
         d="m 2.3260692,0.62902518 c 0.071866,-0.0718663 0.1625962,0.0308205 0.2594438,0 0.8585988,-0.27323533 1.9824202,-0.74528175 1.0672576,1.06725752 -0.045808,0.090725 0.071867,0.1875769 -2e-7,0.2594437 -0.071866,0.071866 -0.258412,0.1016276 -0.2594435,10e-8 -0.00664,-0.6544077 -0.2503831,-1.09827857 -1.0672576,-1.06725755 -0.1015615,0.003857 -0.071866,-0.18757791 -10e-8,-0.25944377 z"
         sodipodi:nodetypes="sssssss" />
      <path
         sodipodi:nodetypes="sssss"
         transform="rotate(-45)"
         d="m 1.9352677,2.8128107 c 0,0.069467 -0.056314,0.1257813 -0.1257814,0.1257813 -0.069467,0 -0.1835608,-0.056345 -0.1835608,-0.1258121 0,-0.069467 0.1140936,-0.1257506 0.1835608,-0.1257506 0.069467,0 0.1257814,0.056314 0.1257814,0.1257814 z"
         style="fill:#b3b3b3;stroke:none;stroke-width:15.0597"
         id="path862" />
      <circle
         transform="rotate(-45)"
         style="fill:#ffffff;stroke:none;stroke-width:8.8479"
         id="circle958"
         cx="1.8094863"
         cy="2.8128107"
         r="0.073899209" />
    </g>
  </g>
</svg>
